<svg id="Layer_1" xmlns="http://www.w3.org/2000/svg" viewBox="0 0 143 48">
  <style>
    .st0{fill:#E8E8E8;} .st1{fill:#7FFF00;}
  </style>
  <path class="st0" d="M9.4 10.8h11.3c4.5 0 6.8 2.3 6.8 6.9 0 1.4-.3 2.7-1 3.7s-1.6 1.8-2.7 2.2c1.4.3 2.6 1 3.4 2.1s1.3 2.5 1.3 4.3c0 1.5-.3 2.8-.9 3.8-.6 1.1-1.5 1.9-2.5 2.4-1.1.6-2.3.9-3.6.9h-12l-.1-26.3zm11.4 12c1.4 0 2.5-.5 3.4-1.3.9-.9 1.3-2.1 1.3-3.8 0-1.9-.4-3.3-1.3-4.1s-2-1.2-3.8-1.2h-9v10.4h9.4zm.2 12.7c1.7 0 3-.5 3.9-1.3.9-.9 1.4-2.3 1.4-4.2 0-1.9-.5-3.3-1.5-4.2-1-.9-2.4-1.3-4.4-1.3h-9.1v10.9l9.7.1z" id="b"/>
  <g id="q">
    <path class="st1" d="M47.4 10.2h2l-10.8 27h-2l10.8-27zM63.3 35.6c-2.1-1.1-3.9-2.6-5-4.6-1.2-2-1.8-4.3-1.8-6.9 0-2.7.6-5.1 1.8-7.2s2.8-3.7 4.9-4.9c2-1.2 4.4-1.7 7-1.7s5 .6 7 1.7c2 1.2 3.7 2.8 4.9 4.9s1.8 4.5 1.8 7.2c0 2.8-.7 5.1-2 7.2-1.3 2-3.2 3.5-5.5 4.3H84v1.7H70.5c-2.6-.2-5-.6-7.2-1.7zM76.2 34c1.8-.9 3.1-2.2 4.2-3.9 1-1.7 1.6-3.8 1.6-6.1s-.6-4.5-1.6-6.3-2.4-3.2-4.2-4.2c-1.8-.9-3.8-1.5-6-1.5s-4.2.5-6 1.5c-1.8.9-3.2 2.4-4.2 4.2s-1.6 3.9-1.6 6.3.6 4.4 1.6 6.1 2.4 3 4.2 3.9c1.8.9 3.8 1.3 6 1.3s4.2-.4 6-1.3zM101.5 10.2h2l-10.8 27h-2l10.8-27z"/>
  </g>
  <path class="st0" d="M121.1 10.8h1.8l10.5 26.4h-2l-3-7.6h-12.7l-3 7.6h-2l10.4-26.4zm6.7 17.1L122 13.2l-5.7 14.6h11.5v.1z" id="a"/>
  <g id="brackets">
    <path class="st0" d="M1.6 46.4V1.6h49.7l.6-1.6H0v48h32.9l.6-1.6zM143 0h-35.8l-.6 1.6h34.8v44.8H88.7l-.6 1.6H143z"/>
  </g>
</svg>
